<svg xmlns="http://www.w3.org/2000/svg" xmlns:xlink="http://www.w3.org/1999/xlink" width="45" height="45" viewBox="0 0 45 45">
  <defs>
    <clipPath id="clip-path3">
      <rect id="Rectangle_105" data-name="Rectangle 105" width="45" height="45" transform="translate(8 235)" fill="#4796db" stroke="#707070" stroke-width="1"/>
    </clipPath>
  </defs>
  <g id="Mask_Group_12" data-name="Mask Group 12" transform="translate(-8 -235)" clip-path="url(#clip-path3)">
    <g id="list_1_" data-name="list (1)" transform="translate(4.442 235)">
      <g id="Group_279" data-name="Group 279" transform="translate(4.823 0)">
        <g id="Group_278" data-name="Group 278">
          <path id="Path_24" data-name="Path 24" d="M41.889,5.9H37V4.075c0-.589-.772-.857-1.48-.857h-3.8C30.82,1.075,28.568,0,25.994,0a5.946,5.946,0,0,0-5.727,3.214H16.535c-.708,0-1.416.268-1.416.857V5.9H10.228c-2.9.026-5.269,1.929-5.405,4.339V40.929C4.823,43.286,7.4,45,10.228,45h31.66c2.831,0,5.405-1.714,5.405-4.071V10.235C47.158,7.825,44.787,5.922,41.889,5.9Zm-24.2-.536h3.539A1.334,1.334,0,0,0,22.455,4.4a3.634,3.634,0,0,1,3.539-2.411A3.556,3.556,0,0,1,29.469,4.4a1.349,1.349,0,0,0,1.287.964h3.668V9.646H17.693ZM44.72,40.929c0,1.178-1.416,1.928-2.831,1.928H10.228c-1.416,0-2.831-.75-2.831-1.928V10.235a2.732,2.732,0,0,1,2.831-2.2h4.891v2.732a1.3,1.3,0,0,0,1.416,1.018H35.518A1.371,1.371,0,0,0,37,10.771V8.039h4.891a2.733,2.733,0,0,1,2.831,2.2V40.929Z" transform="translate(-4.823 0)" fill="#4796db"/>
          <path id="Path_25" data-name="Path 25" d="M18.375,23.948a1.071,1.071,0,0,0-1.5-.054l-3.428,3.268L12,25.662a1.071,1.071,0,0,0-1.5-.054,1.125,1.125,0,0,0,0,1.553l2.2,2.25a.964.964,0,0,0,.75.321,1.071,1.071,0,0,0,.75-.321l4.178-3.964a1.018,1.018,0,0,0,.062-1.438C18.418,23.988,18.4,23.968,18.375,23.948Z" transform="translate(-3.4 0)" fill="#4796db"/>
          <path id="Path_26" data-name="Path 26" d="M33.749,26.252H21.429a1.071,1.071,0,1,0,0,2.143h12.32a1.071,1.071,0,0,0,0-2.143Z" transform="translate(0.469 0)" fill="#4796db"/>
          <path id="Path_27" data-name="Path 27" d="M18.375,15.377a1.071,1.071,0,0,0-1.5-.054l-3.428,3.268L12,17.091a1.071,1.071,0,0,0-1.5-.054,1.125,1.125,0,0,0,0,1.553l2.2,2.25a.964.964,0,0,0,.75.321,1.071,1.071,0,0,0,.75-.321l4.178-3.964a1.018,1.018,0,0,0,.062-1.438C18.418,15.418,18.4,15.4,18.375,15.377Z" transform="translate(-3.4 0)" fill="#4796db"/>
          <path id="Path_28" data-name="Path 28" d="M33.749,17.681H21.429a1.071,1.071,0,1,0,0,2.143h12.32a1.071,1.071,0,0,0,0-2.143Z" transform="translate(0.469 0)" fill="#4796db"/>
          <path id="Path_29" data-name="Path 29" d="M18.375,32.519a1.071,1.071,0,0,0-1.5-.054l-3.428,3.268L12,34.233a1.071,1.071,0,0,0-1.5-.054,1.125,1.125,0,0,0,0,1.553l2.2,2.25a.964.964,0,0,0,.75.321,1.071,1.071,0,0,0,.75-.321l4.178-3.964a1.018,1.018,0,0,0,.062-1.438C18.418,32.559,18.4,32.539,18.375,32.519Z" transform="translate(-3.4 0)" fill="#4796db"/>
          <path id="Path_30" data-name="Path 30" d="M33.749,34.822H21.429a1.071,1.071,0,1,0,0,2.143h12.32a1.071,1.071,0,0,0,0-2.143Z" transform="translate(0.469 0)" fill="#4796db"/>
        </g>
      </g>
    </g>
  </g>
</svg>
