<svg xmlns="http://www.w3.org/2000/svg" xmlns:xlink="http://www.w3.org/1999/xlink" width="18" height="18" viewBox="0 0 18 18" fill="#464646">
  <defs>
    <clipPath id="clip-path">
      <rect id="Rectangle_24" data-name="Rectangle 24" width="18" height="18" fill="#464646"/>
    </clipPath>
  </defs>
  <g id="Mask_Group_1" data-name="Mask Group 1" clip-path="url(#clip-path)">
    <g id="book" transform="translate(-0.223 0.536)">
      <path id="Path_2" data-name="Path 2" d="M17.994,4.994l-.236-1.287a.371.371,0,0,0-.365-.3h0a.371.371,0,0,0-.364.308L14.908,15.916H4.111a.9.9,0,0,1-.675-.3,1.154,1.154,0,0,1-.288-.841,1.247,1.247,0,0,1,1.18-1.186h9.011a.371.371,0,0,0,.366-.309L15.815.808a.372.372,0,0,0-.366-.433h-9A4.784,4.784,0,0,0,1.975,4.1L.051,13.516a3.579,3.579,0,0,0,.756,2.92,3.436,3.436,0,0,0,2.679,1.188H15.348a.857.857,0,0,0,.844-.716L18,5.117A.367.367,0,0,0,17.994,4.994Z" transform="translate(0 -0.375)" />
    </g>
  </g>
</svg>
