<svg xmlns="http://www.w3.org/2000/svg" width="13" height="13" viewBox="0 0 13 13">
  <path id="Close" d="M13.3-2.329a.605.605,0,0,1,.219.456.6.6,0,0,1-.263.492.981.981,0,0,1-.613.2.928.928,0,0,1-.635-.255L7.02-6.741,2.008-1.435a.832.832,0,0,1-.635.255.923.923,0,0,1-.591-.21A.609.609,0,0,1,.52-1.873a.6.6,0,0,1,.2-.456L5.969-7.817,1-13.031a.623.623,0,0,1-.219-.474.592.592,0,0,1,.252-.474.9.9,0,0,1,.58-.2.848.848,0,0,1,.635.273L7.02-8.874l4.749-5.032a.848.848,0,0,1,.635-.273.923.923,0,0,1,.591.21.625.625,0,0,1,.263.5.576.576,0,0,1-.2.438L8.071-7.817Z" transform="translate(-0.52 14.18)" fill="#d0d0d0"/>
</svg>
