<svg xmlns="http://www.w3.org/2000/svg" xmlns:xlink="http://www.w3.org/1999/xlink" width="18" height="18" viewBox="0 0 18 18" fill="#464646">
  <defs>
    <clipPath id="clip-path">
      <rect id="Rectangle_26" data-name="Rectangle 26" width="18" height="18" />
    </clipPath>
  </defs>
  <g id="Mask_Group_3" data-name="Mask Group 3" clip-path="url(#clip-path)">
    <g id="book" transform="translate(-0.223 0.536)">
      <path id="Path_4" data-name="Path 4" d="M.006,4.994.242,3.707a.371.371,0,0,1,.365-.3h0a.371.371,0,0,1,.364.308L3.092,15.916h10.8a.9.9,0,0,0,.675-.3,1.154,1.154,0,0,0,.288-.841,1.247,1.247,0,0,0-1.18-1.186H4.661a.371.371,0,0,1-.366-.309L2.185.808A.372.372,0,0,1,2.551.375h9A4.784,4.784,0,0,1,16.025,4.1l1.924,9.42a3.579,3.579,0,0,1-.756,2.92,3.436,3.436,0,0,1-2.679,1.188H2.652a.857.857,0,0,1-.844-.716L0,5.117A.367.367,0,0,1,.006,4.994Z" transform="translate(0 -0.375)"/>
    </g>
  </g>
</svg>
