<svg xmlns="http://www.w3.org/2000/svg" xmlns:xlink="http://www.w3.org/1999/xlink" width="18" height="18" viewBox="0 0 18 18" fill="#bdbdbd">
  <defs>
    <clipPath id="clip-path">
      <rect id="Rectangle_27" data-name="Rectangle 27" width="18" height="18"  stroke="#707070" stroke-width="2"/>
    </clipPath>
  </defs>
  <g id="Mask_Group_4" data-name="Mask Group 4" clip-path="url(#clip-path)">
    <g id="open-book" transform="translate(-0.223 2.286)">
      <g id="Group_9" data-name="Group 9">
        <g id="Group_8" data-name="Group 8">
          <path id="Path_5" data-name="Path 5" d="M2.753,2.124h0a.635.635,0,0,0-.451.187.641.641,0,0,0-.19.457v9.659a.646.646,0,0,0,.645.644A7.968,7.968,0,0,1,8.5,15.2V5.092a.617.617,0,0,0-.089-.326C6.989,2.476,4.256,2.128,2.753,2.124Z" transform="translate(0 -2.124)" />
          <path id="Path_6" data-name="Path 6" d="M15.889,12.427V2.768a.641.641,0,0,0-.19-.457.635.635,0,0,0-.451-.187h0c-1.5,0-4.236.352-5.658,2.642a.617.617,0,0,0-.088.326V15.2a7.968,7.968,0,0,1,5.744-2.129A.646.646,0,0,0,15.889,12.427Z" transform="translate(0 -2.124)" />
          <path id="Path_7" data-name="Path 7" d="M17.356,4.352h-.467v8.075a1.648,1.648,0,0,1-1.642,1.644,7.144,7.144,0,0,0-4.854,1.657,15.506,15.506,0,0,1,6.819.132A.644.644,0,0,0,18,15.232V5A.645.645,0,0,0,17.356,4.352Z" transform="translate(0 -2.124)" />
          <path id="Path_8" data-name="Path 8" d="M1.111,12.427V4.352H.644A.645.645,0,0,0,0,5V15.232a.644.644,0,0,0,.788.628,15.5,15.5,0,0,1,6.819-.132,7.144,7.144,0,0,0-4.854-1.657A1.648,1.648,0,0,1,1.111,12.427Z" transform="translate(0 -2.124)" />
        </g>
      </g>
    </g>
  </g>
</svg>
