<svg xmlns="http://www.w3.org/2000/svg" width="75.548" height="75.107" viewBox="0 0 75.548 75.107" fill="#2e333e">
  <path id="Path_44" data-name="Path 44" d="M40.156,8.46a3,3,0,0,1,5.687,0L53.082,30a3,3,0,0,0,2.763,2.043l22,.592a3,3,0,0,1,1.8,5.335L61.937,52.238a3,3,0,0,0-1,3.151l6.3,22.306a3,3,0,0,1-4.646,3.246l-17.826-12.9a3,3,0,0,0-3.517,0l-17.826,12.9A3,3,0,0,1,18.769,77.7l6.3-22.306a3,3,0,0,0-1-3.151L6.349,37.965a3,3,0,0,1,1.8-5.335l22-.592A3,3,0,0,0,32.918,30Z" transform="translate(-5.226 -6.416)" />
</svg>
