<svg xmlns="http://www.w3.org/2000/svg" xmlns:xlink="http://www.w3.org/1999/xlink" width="45" height="45" viewBox="0 0 45 45">
  <defs>
    <clipPath id="clip-path4">
      <rect id="Rectangle_121" data-name="Rectangle 121" width="45" height="45" transform="translate(8 430)" fill="#4796db" stroke="#707070" stroke-width="1"/>
    </clipPath>
  </defs>
  <g id="Mask_Group_13" data-name="Mask Group 13" transform="translate(-8 -430)" clip-path="url(#clip-path4)">
    <g id="writing" transform="translate(8 430)">
      <g id="Group_281" data-name="Group 281">
        <g id="Group_280" data-name="Group 280">
          <path id="Path_31" data-name="Path 31" d="M30.978,19.336a1.758,1.758,0,0,0-1.758-1.758H11.115a1.758,1.758,0,0,0,0,3.516H29.22A1.758,1.758,0,0,0,30.978,19.336Z" fill="#4796db"/>
          <path id="Path_32" data-name="Path 32" d="M11.115,24.609a1.758,1.758,0,0,0,0,3.516h11a1.758,1.758,0,1,0,0-3.516Z" fill="#4796db"/>
          <path id="Path_33" data-name="Path 33" d="M15.245,41.484H9.367a3.52,3.52,0,0,1-3.516-3.516V7.031A3.52,3.52,0,0,1,9.367,3.516H30.978a3.52,3.52,0,0,1,3.516,3.516V17.842a1.758,1.758,0,0,0,3.516,0V7.031A7.039,7.039,0,0,0,30.978,0H9.367A7.039,7.039,0,0,0,2.335,7.031V37.969A7.039,7.039,0,0,0,9.367,45h5.879a1.758,1.758,0,1,0,0-3.516Z" fill="#4796db"/>
          <path id="Path_34" data-name="Path 34" d="M41.123,25.451a5.279,5.279,0,0,0-7.456,0l-9.651,9.629a1.758,1.758,0,0,0-.44.733l-2.1,6.919a1.758,1.758,0,0,0,2.151,2.2l7.095-1.965a1.757,1.757,0,0,0,.773-.45l9.63-9.612A5.279,5.279,0,0,0,41.123,25.451ZM29.336,39.706l-3.569.989,1.045-3.439,6.512-6.5,2.486,2.486Zm9.3-9.285-.341.34-2.486-2.486.339-.339a1.758,1.758,0,0,1,2.487,2.485Z" fill="#4796db"/>
          <path id="Path_35" data-name="Path 35" d="M29.22,10.547H11.115a1.758,1.758,0,0,0,0,3.516H29.22a1.758,1.758,0,0,0,0-3.516Z" fill="#4796db"/>
        </g>
      </g>
    </g>
  </g>
</svg>
